FFmpeg version SVN-r25716, Copyright (c) 2000-2010 the FFmpeg developers  built on Nov 10 2010 12:23:18 with gcc 4.1.2 20080704 (Red Hat 4.1.2-48)  configuration: --enable-libmp3lame --enable-shared --disable-mmx --arch=x86_64  libavutil     50.33. 0 / 50.33. 0  libavcore      0.12. 1 /  0.12. 1  libavcodec    52.94. 4 / 52.94. 4  libavformat   52.84. 0 / 52.84. 0  libavdevice   52. 2. 2 / 52. 2. 2  libavfilter    1.59. 0 /  1.59. 0  libswscale     0.12. 0 /  0.12. 0Seems stream 0 codec frame rate differs from container frame rate: 1200.00 (1200/1) -> 30.00 (30/1)Input #0, mov,mp4,m4a,3gp,3g2,mj2, from '/RAID10/data/converted_video_files/48253.mov':  Metadata:    major_brand     : qt      minor_version   : 0    compatible_brands: qt    Duration: 00:00:13.33, start: 0.000000, bitrate: 4128 kb/s    Stream #0.0(und): Video: h264, yuv420p, 512x512 [PAR 1:1 DAR 1:1], 4126 kb/s, 30 fps, 30 tbr, 600 tbn, 1200 tbc[buffer @ 0x16ceca20] w:512 h:512 pixfmt:yuv420pOutput #0, flv, to '/RAID10/data/converted_video_files/48253.flv':  Metadata:    encoder         : Lavf52.84.0    Stream #0.0(und): Video: flv, yuv420p, 512x512 [PAR 1:1 DAR 1:1], q=2-31, 600 kb/s, 1k tbn, 24 tbcStream mapping:  Stream #0.0 -> #0.0Press [q] to stop encodingframe=   21 fps=  0 q=13.9 size=     316kB time=0.88 bitrate=2961.3kbits/s dup=0 drop=5    frame=   45 fps= 42 q=13.4 size=     387kB time=1.88 bitrate=1689.0kbits/s dup=0 drop=11    frame=   76 fps= 48 q=14.1 size=     484kB time=3.17 bitrate=1251.9kbits/s dup=0 drop=18    frame=  105 fps= 50 q=13.3 size=     560kB time=4.38 bitrate=1048.3kbits/s dup=0 drop=26    frame=  132 fps= 51 q=14.5 size=     636kB time=5.50 bitrate= 947.1kbits/s dup=0 drop=33    frame=  162 fps= 52 q=13.7 size=     732kB time=6.75 bitrate= 887.8kbits/s dup=0 drop=40    frame=  192 fps= 53 q=14.4 size=     812kB time=8.00 bitrate= 831.7kbits/s dup=0 drop=48    frame=  223 fps= 54 q=14.0 size=     911kB time=9.29 bitrate= 802.9kbits/s dup=0 drop=55    frame=  253 fps= 55 q=12.4 size=    1011kB time=10.54 bitrate= 785.9kbits/s dup=0 drop=63    frame=  281 fps= 55 q=13.6 size=    1090kB time=11.71 bitrate= 762.9kbits/s dup=0 drop=70    frame=  311 fps= 55 q=14.5 size=    1176kB time=12.96 bitrate= 743.5kbits/s dup=0 drop=77    frame=  320 fps= 55 q=12.9 Lsize=    1206kB time=13.33 bitrate= 741.1kbits/s dup=0 drop=80    video:1201kB audio:0kB global headers:0kB muxing overhead 0.433430%